<svg xmlns="http://www.w3.org/2000/svg" xmlns:xlink="http://www.w3.org/1999/xlink" width="241" height="118" viewBox="0 0 241 118">
  <defs>
    <clipPath id="clip-Artboard_21">
      <rect width="241" height="118"/>
    </clipPath>
  </defs>
  <g id="Artboard_21" data-name="Artboard – 21" clip-path="url(#clip-Artboard_21)">
    <text id="_1." data-name="1." transform="translate(-11 17)" fill="#fff" font-size="30" font-family="LibreFranklin-SemiBold, Libre Franklin" font-weight="600"><tspan x="11.535" y="29">1.</tspan></text>
    <g id="Group_2552" data-name="Group 2552" transform="translate(34.129 1)">
      <path id="Significon-Computer" d="M101.27,61.485a3.617,3.617,0,1,1-3.617-3.617,3.617,3.617,0,0,1,3.617,3.617Zm0,32.551H83.186a3.617,3.617,0,0,1,0-7.234H101.27a7.234,7.234,0,0,0,7.234-7.234v-65.1a7.234,7.234,0,0,0-7.234-7.234h-86.8a7.234,7.234,0,0,0-7.234,7.234V54.252a3.617,3.617,0,0,0,3.617,3.617H83.186a3.617,3.617,0,1,1,0,7.234H9.042A9.043,9.043,0,0,1,.184,57.869H0v-43.4A14.468,14.468,0,0,1,14.467,0h86.8a14.468,14.468,0,0,1,14.467,14.467v65.1A14.468,14.468,0,0,1,101.27,94.037ZM50.635,75.953a3.617,3.617,0,1,1,3.617,3.617,3.617,3.617,0,0,1-3.617-3.617ZM3.617,72.336a3.617,3.617,0,0,1,3.617,3.617v3.617A7.234,7.234,0,0,0,14.467,86.8H65.1a7.234,7.234,0,0,1,7.234,7.234c0,7.989,7.156,14.467,10.85,14.467a3.617,3.617,0,1,1,0,7.234H32.551a3.617,3.617,0,0,1,0-7.234c2.079,0,5.4-2.2,7.822-5.59a3.615,3.615,0,0,1,6.645,1.973,3.5,3.5,0,0,1-.037.369,2.308,2.308,0,0,1-.39,1.3,3.967,3.967,0,0,1-.238.408s0,.012-.008.016c-.374.53-.781,1.028-1.188,1.521h25.3c-.053-.065-.113-.124-.168-.193-.009-.009-.012-.018-.019-.024-.325-.4-.625-.818-.925-1.245-.012-.021-.033-.043-.046-.062a24.15,24.15,0,0,1-2.963-5.821,22.738,22.738,0,0,1-1.1-4.865c0,.02,0,.044,0,.066a2.71,2.71,0,0,0-2.683-2.323H14.467A14.468,14.468,0,0,1,0,79.569V75.953a3.617,3.617,0,0,1,3.617-3.617Z" transform="translate(0 0)" fill="#fff" fill-rule="evenodd"/>
      <path id="Significon-Mobile" d="M135.785,101.27a3.617,3.617,0,1,1-3.617-3.617A3.617,3.617,0,0,1,135.785,101.27Zm18.084,14.467h-43.4A14.467,14.467,0,0,1,96,101.27V54.252a3.617,3.617,0,1,1,7.234,0V101.27a7.234,7.234,0,0,0,7.234,7.234h43.4a7.234,7.234,0,0,0,7.234-7.234V97.653a3.617,3.617,0,0,0-3.617-3.617h-43.4a3.617,3.617,0,0,1,0-7.234h45.21a9.045,9.045,0,0,1,8.86,7.234h.182v7.234A14.468,14.468,0,0,1,153.869,115.737ZM103.234,39.785a3.617,3.617,0,1,1-3.617-3.617A3.617,3.617,0,0,1,103.234,39.785Zm61.485,39.785a3.617,3.617,0,0,1-3.617-3.617V14.467a7.234,7.234,0,0,0-7.234-7.234h-43.4a7.234,7.234,0,0,0-7.234,7.234v3.617A3.617,3.617,0,0,0,106.85,21.7h43.4a3.617,3.617,0,0,1,0,7.234h-45.21A9.042,9.042,0,0,1,96,19.892V14.467A14.467,14.467,0,0,1,110.467,0h43.4a14.468,14.468,0,0,1,14.467,14.467V75.953A3.617,3.617,0,0,1,164.719,79.569Z" transform="translate(34.768 0)" fill="#fff" fill-rule="evenodd"/>
    </g>
  </g>
</svg>
