<svg xmlns="http://www.w3.org/2000/svg" xmlns:xlink="http://www.w3.org/1999/xlink" width="241" height="118" viewBox="0 0 241 118">
  <defs>
    <clipPath id="clip-Artboard_22">
      <rect width="241" height="118"/>
    </clipPath>
  </defs>
  <g id="Artboard_22" data-name="Artboard – 22" clip-path="url(#clip-Artboard_22)">
    <text id="_2." data-name="2." transform="translate(19 17)" fill="#fff" font-size="30" font-family="LibreFranklin-SemiBold, Libre Franklin" font-weight="600"><tspan x="9.525" y="29">2.</tspan></text>
    <g id="Group_2500" data-name="Group 2500" transform="translate(64.191 1)">
      <path id="Significon-Click" d="M66.924,75.954a3.617,3.617,0,1,1-3.617-3.617A3.617,3.617,0,0,1,66.924,75.954ZM114.97,64.3s.007,0,.007,0a1.8,1.8,0,0,0-.7,2.939l4.134,4.134h0a9.491,9.491,0,0,1-2.857,15.417l-6.418,2.7a2.7,2.7,0,0,0-1.288,3.354c.049.132.087.235.111.313l2.052,4.955a12.658,12.658,0,1,1-23.389,9.688l-1.925-4.648s-.012.011-.014.005a3.139,3.139,0,0,0-4.106-1.642l-6.1,2.57h-.012A10.713,10.713,0,0,1,59.69,94.179V90.421a3.617,3.617,0,1,1,7.234,0v3.617A3.583,3.583,0,0,0,71.8,97.414l6.024-2.532c.062-.025.111-.028.177-.057a10.2,10.2,0,0,1,13.344,5.482l.005.011,1.955,4.719a5.425,5.425,0,1,0,10.024-4.152l-2.117-5.113a9.926,9.926,0,0,1,5.058-12.853l6.554-2.758c.005,0-.005,0,0,0a1.8,1.8,0,0,0,.62-.4,1.765,1.765,0,0,0,.005-2.49l-8.507-8.507a6.395,6.395,0,0,1,4.556-10.889h.834a7.234,7.234,0,0,0,7.234-7.234V14.467a7.234,7.234,0,0,0-7.234-7.234H-3.533a7.234,7.234,0,0,0-7.234,7.234V50.635a7.234,7.234,0,0,0,7.234,7.234H56.074a3.617,3.617,0,0,0,3.617-3.617V37.341a10.215,10.215,0,0,1,17.452-7.209c.033.033.032.014.057.035L96.487,49.455a3.837,3.837,0,1,1-5.425,5.425L71.309,35.129c-.009-.007,0,.019-.014,0a2.544,2.544,0,0,0-4.371,1.77V56.06A9.041,9.041,0,0,1,57.882,65.1H-3.533A14.469,14.469,0,0,1-18,50.635V14.467A14.468,14.468,0,0,1-3.533,0H110.326a14.468,14.468,0,0,1,14.467,14.467V50.635A14.441,14.441,0,0,1,114.97,64.3Z" transform="translate(18)" fill="#fff" fill-rule="evenodd"/>
      <g id="Group_2499" data-name="Group 2499" transform="translate(20.754 11.397)">
        <path id="Path_1886" data-name="Path 1886" d="M39.61,15.538H70.59a2.2,2.2,0,0,0,1.3-4.011L56.394.418a2.226,2.226,0,0,0-2.591,0L38.315,11.526a2.251,2.251,0,0,0-.925,1.79,2.212,2.212,0,0,0,2.22,2.222ZM55.1,4.984l8.579,6.11H46.523Z" transform="translate(-33.987 -0.003)" fill="#fff"/>
        <path id="Path_1887" data-name="Path 1887" d="M148.486,212.708l.069-9.434L143.06,200.8v14.381Z" transform="translate(-130.041 -182.527)" fill="#fff"/>
        <path id="Path_1888" data-name="Path 1888" d="M260.65,212.708l-.07-9.434,5.495-2.473v14.381Z" transform="translate(-236.867 -182.527)" fill="#fff"/>
        <path id="Path_1889" data-name="Path 1889" d="M41.068,209.946H39.2v-1.862a1.166,1.166,0,0,0-1.165-1.165h-1.75v-14.4a2.583,2.583,0,1,0-5.165,0v14.4H11.11v-14.4a2.583,2.583,0,1,0-5.165,0v14.392H4.2a1.166,1.166,0,0,0-1.165,1.165v1.861H1.165A1.166,1.166,0,0,0,0,211.105v2.025H42.225v-2.016A1.164,1.164,0,0,0,41.068,209.946Z" transform="translate(0 -172.655)" fill="#fff"/>
      </g>
    </g>
  </g>
</svg>
