<svg xmlns="http://www.w3.org/2000/svg" xmlns:xlink="http://www.w3.org/1999/xlink" width="241" height="118" viewBox="0 0 241 118">
  <defs>
    <clipPath id="clip-Artboard_23">
      <rect width="241" height="118"/>
    </clipPath>
  </defs>
  <g id="Artboard_23" data-name="Artboard – 23" clip-path="url(#clip-Artboard_23)">
    <path id="Significon-Like" d="M115.66,88.3A28.908,28.908,0,0,1,86.8,115.737H61.486a3.618,3.618,0,1,1,0-7.235H86.8a21.7,21.7,0,0,0,21.7-21.7V61.485A10.85,10.85,0,0,0,97.653,50.634h-9.1a10.849,10.849,0,0,1-10.85-10.848,10.97,10.97,0,0,1,.569-3.463,21.6,21.6,0,0,0,1.3-7.388V14.466a7.234,7.234,0,1,0-14.468,0v5.425c0,7.024-7.58,15.382-15.37,23.172a75.716,75.716,0,0,1-7.989,6.679,13.526,13.526,0,0,0-5.575,10.952V99.462a8.945,8.945,0,0,1-.561,3.034,9.6,9.6,0,0,1-.491,1.113c-.048.1-.1.191-.154.283a8.107,8.107,0,0,1-.608.95c-.065.085-.138.166-.2.247a9.376,9.376,0,0,1-1.358,1.367c-.156.124-.3.258-.459.376-.191.138-.4.247-.6.369a8.716,8.716,0,0,1-.807.441c-.2.094-.41.175-.62.256a9.352,9.352,0,0,1-.97.3c-.187.046-.366.1-.556.139a9.229,9.229,0,0,1-1.655.166H14.469A14.465,14.465,0,0,1,0,94.037V57.869A14.469,14.469,0,0,1,14.469,43.4h3.617a3.617,3.617,0,0,1,0,7.234H14.469a7.236,7.236,0,0,0-7.235,7.234V94.037a7.237,7.237,0,0,0,7.235,7.235H25.316a3.62,3.62,0,0,0,3.618-3.619V60.694a20.775,20.775,0,0,1,8.239-16.572q.858-.633,1.716-1.29a3.6,3.6,0,0,1,1.042-.819c9.131-7.19,17.935-16.688,17.935-27.547a14.466,14.466,0,0,1,28.933,0V30.744a28.285,28.285,0,0,1-1.628,8.962c0,.012,0,.012,0,.025A2.708,2.708,0,0,0,87.7,43.4h13.567a14.472,14.472,0,0,1,14.466,14.469V86.8a13.991,13.991,0,0,1-.078,1.5ZM47.02,101.272a3.615,3.615,0,1,1-3.618,3.617,3.618,3.618,0,0,1,3.618-3.617Z" transform="translate(78.719 1)" fill="#fff" fill-rule="evenodd"/>
    <text id="_3." data-name="3." transform="translate(34 17)" fill="#fff" font-size="30" font-family="LibreFranklin-SemiBold, Libre Franklin" font-weight="600"><tspan x="9.075" y="29">3.</tspan></text>
  </g>
</svg>
